<?xml version="1.0" standalone="no"?>
<!DOCTYPE svg PUBLIC "-//W3C//DTD SVG 20010904//EN"
 "http://www.w3.org/TR/2001/REC-SVG-20010904/DTD/svg10.dtd">
<svg version="1.0" xmlns="http://www.w3.org/2000/svg"
 width="500.000000pt" height="500.000000pt" viewBox="0 0 500.000000 500.000000"
 preserveAspectRatio="xMidYMid meet">
<metadata>
Created by potrace 1.14, written by Peter Selinger 2001-2017
</metadata>
<g transform="translate(0.000000,500.000000) scale(0.100000,-0.100000)"
fill="#000000" stroke="none">
<path d="M0 2500 l0 -2500 2500 0 2500 0 0 2500 0 2500 -2500 0 -2500 0 0
-2500z m2760 1335 c30 -8 88 -31 129 -51 94 -46 212 -160 264 -255 96 -172
104 -442 15 -490 -37 -20 -133 -14 -294 20 -207 43 -326 43 -542 0 -262 -53
-320 -44 -354 57 -9 27 -22 52 -30 56 -7 4 -85 19 -173 33 -87 14 -161 28
-163 30 -2 1 78 29 178 62 l182 58 28 76 c73 200 233 350 431 403 72 19 258
20 329 1z m-444 -977 c-4 -90 -9 -164 -11 -167 -3 -2 -42 28 -88 68 -47 39
-87 71 -91 71 -3 0 -39 -30 -78 -67 l-73 -66 -9 91 c-5 51 -12 92 -17 92 -5 0
-32 -19 -61 -43 -138 -112 -233 -290 -284 -529 -22 -104 -25 -359 -5 -468 27
-152 89 -310 164 -419 66 -97 149 -164 262 -213 30 -12 29 -13 -29 -16 -177
-9 -350 123 -462 353 -196 405 -127 975 151 1251 75 74 150 118 224 130 40 6
41 8 41 46 l0 39 90 -63 90 -62 85 59 c48 32 88 63 91 67 15 23 16 -6 10 -154z
m844 5 c213 -96 371 -368 411 -706 29 -247 -28 -537 -142 -731 -54 -92 -166
-202 -242 -239 -80 -39 -164 -52 -235 -38 -217 43 -387 245 -469 558 -35 135
-43 374 -18 523 55 330 221 574 440 647 58 19 198 11 255 -14z"/>
<path d="M2535 3435 c-51 -50 -15 -135 58 -135 45 0 77 34 77 82 0 70 -86 103
-135 53z"/>
</g>
</svg>
